{"title":"Eureka Seven Ao","uid":9412374,"size":2161526878,"categoryP":"video","categoryS":"tv_shows","magnet":"?xt=urn:btih:9cba98f4fbeb8721a9dac9f38c056a8aa708f4e1&amp;dn=Eureka+Seven+Ao&amp;tr=udp%3A%2F%2Ftracker.openbittorrent.com%3A80&amp;tr=udp%3A%2F%2Fopen.demonii.com%3A1337&amp;tr=udp%3A%2F%2Ftracker.coppersurfer.tk%3A6969&amp;tr=udp%3A%2F%2Fexodus.desync.com%3A6969","seeders":1,"leechers":1,"uploader":"p7trick","files":-1,"time":1388336477,"description":"downloaded from justdubs\n\nEureka Seven Ao ENGLISH DUBBED eps 1-25\n_________________________________________________________\n\n\nFormat                                   : MPEG-4\nFormat profile                           : Base Media\nCodec ID                                 : isom\nFile size                                : 86.4 MiB\nDuration                                 : 25mn 59s\nOverall bit rate mode                    : Variable\nOverall bit rate                         : 465 Kbps\nEncoded date                             : UTC 2013-11-13 06:24:44\nTagged date                              : UTC 2013-11-13 06:24:44\n\nVideo\nID                                       : 1\nFormat                                   : AVC\nFormat/Info                              : Advanced Video Codec\nFormat profile                           : &lt;a class=&quot;__cf_email__&quot; href=&quot;/cdn-cgi/l/email-protection&quot; data-cfemail=&quot;377f5e505f777b041907&quot;&gt;[email&amp;#160;protected]&lt;/a&gt;&lt;script cf-hash='f9e31' type=&quot;text/javascript&quot;&gt;\n/* &lt;![CDATA[ */!function(){try{var t=&quot;currentScript&quot;in document?document.currentScript:function(){for(var t=document.getElementsByTagName(&quot;script&quot;),e=t.length;e--;)if(t[e].getAttribute(&quot;cf-hash&quot;))return t[e]}();if(t&amp;&amp;t.previousSibling){var e,r,n,i,c=t.previousSibling,a=c.getAttribute(&quot;data-cfemail&quot;);if(a){for(e=&quot;&quot;,r=parseInt(a.substr(0,2),16),n=2;a.length-n;n+=2)i=parseInt(a.substr(n,2),16)^r,e+=String.fromCharCode(i);e=document.createTextNode(e),c.parentNode.replaceChild(e,c)}}}catch(u){}}();/* ]]&gt; */&lt;/script&gt;\nFormat settings, CABAC                   : Yes\nFormat settings, ReFrames                : 16 frames\nCodec ID                                 : avc1\nCodec ID/Info                            : Advanced Video Coding\nDuration                                 : 25mn 59s\nBit rate mode                            : Variable\nBit rate                                 : 400 Kbps\nMaximum bit rate                         : 2 860 Kbps\nWidth                                    : 720 pixels\nHeight                                   : 408 pixels\nDisplay aspect ratio                     : 16:9\nFrame rate mode                          : Constant\nFrame rate                               : 23.976 fps\nColor space                              : YUV\nChroma subsampling                       : 4:2:0\nBit depth                                : 8 bits\nScan type                                : Progressive\nBits/(Pixel*Frame)                       : 0.057\nStream size                              : 74.4 MiB (86%)\nWriting library                          : x264 core 130 r2273 b3065e6\n\nAudio\nID                                       : 2\nFormat                                   : AAC\nFormat/Info                              : Advanced Audio Codec\nFormat profile                           : HE-AAC / LC\nCodec ID                                 : 40\nDuration                                 : 25mn 59s\nBit rate mode                            : Variable\nBit rate                                 : 61.3 Kbps\nMaximum bit rate                         : 71.4 Kbps\nChannel(s)                               : 6 channels\nChannel positions                        : Front: L C R, Side: L R, LFE\nSampling rate                            : 48.0 KHz / 24.0 KHz\nCompression mode                         : Lossy\nStream size                              : 11.4 MiB (13%)\n_________________________________________________________\n\nSummary:\nThe story is set on Okinawa's isolated island of Iwado, which has seen a growing movement advocating a return to an autonomous government. Fukai Ao, a 13-year-old boy with a missing father, lives on the island with an old doctor named Toshio and is about to enter middle school. Ao's mother was taken away a decade ago by unknown individuals. Arata Naru, Ao's 13-year-old childhood friend and the story's heroine, lives with her father, older sister, and grandmother. She has a Yuta power awakened within her due to an incident when she was young.\n\nA mysterious entity called Secret suddenly appears and launches an attack on the Scub Coral lifeform on the island. In his fervent desire to protect the island, Ao launches a certain military FP called Nirvash aboard a Japanese military transport.\n\n\nFor updates/requests:\nTwitter - @p7tricktorrent\nFacebook - /p7tricktorrent\nTPB - /user/p7trick/\nKAT - /user/iPirate7\n_________________________________________________________\n\nSEED!\n\nshare ratio:\n&quot;Scumbag = 0.1:1\nLeecher = 0.999:1\nMinimum = 1:1\nGood = 3:1\nGreat = 5:1\nAwesome = 10:1\n1337 = 100:1&quot;\t","torrent":{"xt":"urn:btih:9cba98f4fbeb8721a9dac9f38c056a8aa708f4e1","amp;dn":"Eureka+Seven+Ao","amp;tr":["udp%3A%2F%2Ftracker.openbittorrent.com%3A80","udp%3A%2F%2Fopen.demonii.com%3A1337","udp%3A%2F%2Ftracker.coppersurfer.tk%3A6969","udp%3A%2F%2Fexodus.desync.com%3A6969"],"infoHash":"9cba98f4fbeb8721a9dac9f38c056a8aa708f4e1","infoHashBuffer":{"type":"Buffer","data":[156,186,152,244,251,235,135,33,169,218,201,243,140,5,106,138,167,8,244,225]},"announce":[],"urlList":[]}}